<?xml version="1.0" encoding="UTF-8" standalone="no"?><!DOCTYPE svg PUBLIC "-//W3C//DTD SVG 1.1//EN" "http://www.w3.org/Graphics/SVG/1.1/DTD/svg11.dtd"><svg width="100%" height="100%" viewBox="0 0 24 24" version="1.1" xmlns="http://www.w3.org/2000/svg" xmlns:xlink="http://www.w3.org/1999/xlink" xml:space="preserve" xmlns:serif="http://www.serif.com/" style="fill-rule:evenodd;clip-rule:evenodd;stroke-linejoin:round;stroke-miterlimit:2;"><g><path d="M11.998,2.653c-5.407,0 -9.795,4.387 -9.795,9.798c0,5.409 4.388,9.796 9.795,9.796c5.413,0 9.799,-4.387 9.799,-9.796c-0,-5.411 -4.385,-9.798 -9.799,-9.798" style="fill:#ed1c24;fill-rule:nonzero;"/><rect x="7.338" y="13.785" width="9.256" height="2.922" style="fill:#fff;fill-rule:nonzero;"/><path d="M11.665,9.418c0.121,0.154 0.224,0.2 0.332,0.202c0.111,-0.003 0.209,-0.041 0.33,-0.202c-0,-0 1.546,-2.032 1.627,-2.13c0.209,-0.26 0.461,-0.26 0.67,-0.001l1.971,2.495l-0,4.004l-1.958,-2.514c-0.229,-0.288 -0.491,-0.289 -0.723,0c-0.078,0.102 -1.58,2.092 -1.58,2.092c-0.234,0.295 -0.458,0.295 -0.689,-0c0,-0 -1.539,-2 -1.607,-2.092c-0.225,-0.283 -0.476,-0.289 -0.72,0l-1.979,2.514l-0.002,-3.992c0,0 1.886,-2.364 2.006,-2.507c0.213,-0.258 0.47,-0.258 0.679,-0.002l1.643,2.133Z" style="fill:#fff;fill-rule:nonzero;"/></g></svg>