<?xml version="1.0" encoding="UTF-8" standalone="no"?><!DOCTYPE svg PUBLIC "-//W3C//DTD SVG 1.1//EN" "http://www.w3.org/Graphics/SVG/1.1/DTD/svg11.dtd"><svg width="100%" height="100%" viewBox="0 0 24 24" version="1.1" xmlns="http://www.w3.org/2000/svg" xmlns:xlink="http://www.w3.org/1999/xlink" xml:space="preserve" xmlns:serif="http://www.serif.com/" style="fill-rule:evenodd;clip-rule:evenodd;stroke-linejoin:round;stroke-miterlimit:2;"><clipPath id="_clip1"><rect x="1.443" y="7.623" width="21.115" height="8.785"/></clipPath><g clip-path="url(#_clip1)"><g id="Layer_2"><g id="Layer_1-2"><path d="M10.618,12.196l1.211,3.123l-0.32,0l-0.351,-0.939l-1.38,0l-0.376,0.939l-0.297,0l1.273,-3.123l0.24,0Zm0.443,1.938l-0.578,-1.539l-0.597,1.539l1.175,0Z" style="fill:#fff;fill-rule:nonzero;"/><path d="M12.172,13.213l0.263,-0l0,0.302l0.009,0c0.119,-0.233 0.366,-0.374 0.627,-0.36c0.517,0 0.741,0.299 0.741,0.732l-0,1.432l-0.264,0l0,-1.346c0,-0.425 -0.179,-0.566 -0.512,-0.566c-0.334,0 -0.601,0.211 -0.601,0.685l0,1.228l-0.263,0l-0,-2.107Z" style="fill:#fff;fill-rule:nonzero;"/><path d="M14.373,13.213l0.264,-0l-0,0.302l0.008,0c0.12,-0.233 0.366,-0.374 0.627,-0.36c0.518,0 0.741,0.299 0.741,0.732l0,1.432l-0.263,0l-0,-1.346c-0,-0.425 -0.179,-0.566 -0.513,-0.566c-0.333,0 -0.6,0.211 -0.6,0.685l-0,1.228l-0.264,0l0,-2.107Z" style="fill:#fff;fill-rule:nonzero;"/><path d="M17.943,15.012l-0.009,-0c-0.12,0.233 -0.366,0.374 -0.627,0.36c-0.518,-0 -0.741,-0.299 -0.741,-0.732l-0,-1.427l0.263,-0l0,1.346c0,0.425 0.18,0.566 0.513,0.566c0.333,-0 0.601,-0.211 0.601,-0.685l-0,-1.228l0.263,-0l-0,2.107l-0.263,0l-0,-0.307Z" style="fill:#fff;fill-rule:nonzero;"/><path d="M18.769,12.345l0.263,0l-0,0.418l-0.263,-0l-0,-0.418Zm-0,0.869l0.263,0l-0,2.105l-0.263,0l-0,-2.105Z" style="fill:#fff;fill-rule:nonzero;"/><path d="M19.37,13.213l0.43,-0l0,-0.899l0.264,0l-0,0.899l0.456,-0l0,0.219l-0.456,0l-0,1.391c-0,0.158 -0,0.302 0.153,0.302c0.105,-0.004 0.206,-0.04 0.289,-0.105l0,0.263c-0.108,0.053 -0.226,0.083 -0.346,0.088c-0.01,0 -0.02,0.001 -0.03,0.001c-0.183,-0 -0.333,-0.15 -0.333,-0.332c0,-0.015 0.001,-0.031 0.003,-0.046l0,-1.562l-0.43,0l0,-0.219Z" style="fill:#fff;fill-rule:nonzero;"/><path d="M20.75,13.213l0.25,-0l0.61,1.773l0.008,-0l0.694,-1.773l0.25,-0l-1.044,2.672c-0.091,0.24 -0.188,0.521 -0.513,0.521c-0.098,-0.006 -0.194,-0.033 -0.281,-0.079l0,-0.271c0.081,0.057 0.175,0.093 0.273,0.106c0.157,-0 0.223,-0.185 0.263,-0.285l0.214,-0.553l-0.724,-2.111Z" style="fill:#fff;fill-rule:nonzero;"/><path d="M1.443,7.665l1.174,0c0.267,-0.012 0.533,0.012 0.793,0.073c0.315,0.087 0.532,0.379 0.525,0.706c0.002,0.1 -0.017,0.2 -0.056,0.292c-0.138,0.31 -0.43,0.376 -0.595,0.405c0.186,0.03 0.43,0.069 0.598,0.258c0.111,0.126 0.171,0.289 0.168,0.457c-0.005,0.322 -0.202,0.613 -0.501,0.735c-0.228,0.1 -0.474,0.112 -0.823,0.112l-1.283,0l-0,-3.038Zm0.723,0.57l0,0.626l0.573,0c0.172,0 0.453,-0.012 0.453,-0.327c-0,-0.292 -0.251,-0.306 -0.4,-0.306l-0.626,0.007Zm0,1.183l0,0.736l0.53,-0c0.251,-0 0.586,-0.013 0.586,-0.361c-0,-0.349 -0.301,-0.376 -0.457,-0.376l-0.659,0.001Z" style="fill:#fff;fill-rule:nonzero;"/><path d="M5.127,8.691c0.18,-0.158 0.41,-0.25 0.65,-0.258l-0,0.585l-0.22,0.034c-0.318,0.056 -0.413,0.103 -0.413,0.387l-0,1.265l-0.662,0l-0,-2.256l0.645,-0l0,0.243Z" style="fill:#fff;fill-rule:nonzero;"/><path d="M8.364,9.577c0,0.568 -0.327,1.192 -1.205,1.192c-0.626,0 -1.209,-0.361 -1.209,-1.192c-0,-0.688 0.435,-1.235 1.295,-1.188c0.917,0.051 1.119,0.78 1.119,1.188Zm-1.63,-0.444c-0.077,0.133 -0.116,0.285 -0.111,0.439c-0,0.358 0.172,0.672 0.543,0.672c0.371,0 0.534,-0.288 0.534,-0.642c0.017,-0.205 -0.05,-0.409 -0.186,-0.564c-0.104,-0.097 -0.246,-0.143 -0.387,-0.125c-0.163,-0.004 -0.315,0.08 -0.398,0.22l0.005,0Z" style="fill:#fff;fill-rule:nonzero;"/><path d="M11.055,9.577c-0,0.568 -0.327,1.192 -1.205,1.192c-0.627,0 -1.21,-0.361 -1.21,-1.192c0,-0.688 0.435,-1.235 1.295,-1.188c0.918,0.051 1.12,0.78 1.12,1.188Zm-1.63,-0.444c-0.078,0.133 -0.117,0.285 -0.112,0.439c0,0.358 0.172,0.672 0.543,0.672c0.371,0 0.534,-0.288 0.534,-0.642c0.017,-0.205 -0.05,-0.409 -0.185,-0.564c-0.104,-0.097 -0.246,-0.143 -0.388,-0.125c-0.162,-0.004 -0.315,0.08 -0.397,0.22l0.005,0Z" style="fill:#fff;fill-rule:nonzero;"/><path d="M11.481,7.665l0.649,0l0,1.564l0.728,-0.771l0.796,-0l-0.774,0.795l0.878,1.446l-0.77,0l-0.577,-0.969l-0.284,0.275l-0,0.702l-0.646,-0l-0,-3.042Z" style="fill:#fff;fill-rule:nonzero;"/><path d="M14.105,8.235c-0.009,-0.135 0.024,-0.269 0.095,-0.384c0.082,-0.112 0.267,-0.228 0.577,-0.228c0.133,0.004 0.265,0.017 0.396,0.039l0,0.495l-0.159,-0c-0.251,-0 -0.262,0.051 -0.258,0.353l0.443,0l0,0.404l-0.438,0l-0,1.79l-0.656,0l-0,-1.79l-0.359,0l0,-0.405l0.359,0l-0,-0.274Z" style="fill:#fff;fill-rule:nonzero;"/><path d="M15.528,7.662l0.654,-0l0,0.511l-0.654,0l-0,-0.511Zm-0,0.792l0.654,-0l0,2.257l-0.654,-0l-0,-2.257Z" style="fill:#fff;fill-rule:nonzero;"/><path d="M18.877,10.13c-0.077,0.123 -0.168,0.236 -0.271,0.336c-0.232,0.21 -0.535,0.323 -0.848,0.319c-0.667,-0 -1.136,-0.427 -1.136,-1.163c0,-0.542 0.267,-1.24 1.154,-1.24c0.302,-0.009 0.596,0.109 0.808,0.324c0.293,0.315 0.31,0.752 0.319,1.003l-1.606,-0c-0,0.279 0.155,0.559 0.513,0.559c0.357,0 0.486,-0.237 0.568,-0.396l0.499,0.258Zm-0.659,-0.831c-0.005,-0.117 -0.049,-0.229 -0.125,-0.319c-0.088,-0.081 -0.204,-0.126 -0.324,-0.125c-0.127,0 -0.248,0.053 -0.334,0.147c-0.072,0.084 -0.118,0.187 -0.133,0.297l0.916,-0Z" style="fill:#fff;fill-rule:nonzero;"/><rect x="19.285" y="7.665" width="0.663" height="3.039" style="fill:#fff;fill-rule:nonzero;"/><path d="M22.557,7.665l0,3.039l-0.603,0l0,-0.21c-0.153,0.174 -0.375,0.273 -0.606,0.27c-0.235,-0.002 -0.459,-0.094 -0.627,-0.258c-0.328,-0.314 -0.328,-0.766 -0.328,-0.912c0,-0.848 0.483,-1.197 0.934,-1.197c0.218,0.005 0.426,0.086 0.59,0.229l-0,-0.961l0.64,0Zm-0.626,1.916c-0,-0.103 -0,-0.384 -0.142,-0.555c-0.063,-0.08 -0.157,-0.129 -0.258,-0.133c-0.469,-0 -0.469,0.589 -0.469,0.688c-0,0.315 0.086,0.697 0.421,0.697c0.077,-0.002 0.152,-0.026 0.216,-0.069c0.23,-0.159 0.23,-0.503 0.23,-0.628l0.002,-0Z" style="fill:#fff;fill-rule:nonzero;"/></g></g></g></svg>